<svg width="204" height="204" viewBox="0 0 204 204" fill="none" xmlns="http://www.w3.org/2000/svg">
<path d="M42.7056 137.192C42.7056 140.527 42.9993 143.789 43.5256 146.983C48.1942 119.238 72.3141 98.0587 101.421 98.0587C130.528 98.0587 154.634 119.238 159.287 146.983C159.83 143.79 160.103 140.528 160.103 137.192C160.103 104.774 133.831 78.5023 101.422 78.5023C69.0124 78.5023 42.7076 104.774 42.7076 137.192" fill="black"/>
<path d="M117.978 80.8707C120.58 94.551 121.371 110.193 114.848 121.469C100.27 146.624 69.8591 156.879 43.5176 147.016C46.0013 149.067 48.6757 150.959 51.5593 152.614C79.597 168.88 115.497 159.326 131.751 131.284C138.919 118.928 141.073 105.04 138.841 91.9785" fill="black"/>
<path d="M80.9129 82.1804C78.677 95.2313 80.8251 109.11 87.9845 121.469C102.571 146.624 132.982 156.879 159.315 147.016C156.823 149.067 154.145 150.959 151.249 152.614C123.236 168.88 87.2981 159.326 71.0699 131.284C63.9013 118.925 61.7491 105.034 63.9849 91.9713" fill="black"/>
<path d="M118.807 120.708H83.3984V139.077H118.807V120.708Z" fill="black"/>
<path d="M114.275 32.8726C113.835 32.8675 113.283 33.1449 112.928 33.252C111.675 33.6304 110.386 33.9711 109.128 34.3322C107.959 34.6688 106.883 35.0788 105.75 35.5082C105.394 35.6429 104.642 35.8091 104.437 36.1519C104.254 36.4568 104.578 36.9852 104.702 37.2616C105.128 38.2031 105.653 39.1017 106.086 40.0319C106.592 41.1172 107.329 42.1046 107.777 43.2215C107.936 43.6162 108.127 43.9732 108.33 44.3476C108.406 44.4863 108.484 44.7321 108.629 44.8106C108.826 44.9177 109.256 44.7188 109.456 44.6627C110.161 44.4638 110.876 44.3139 111.568 44.0671C112.559 43.7131 113.635 43.5673 114.665 43.2959C116.048 42.9318 117.42 42.4871 118.793 42.1423C118.729 41.41 118.165 40.5593 117.866 39.8902C117.136 38.2551 116.493 36.5782 115.664 35.0105C115.406 34.5229 115.145 34.0282 114.917 33.5264C114.824 33.3193 114.794 33.0296 114.555 32.9266C114.47 32.8899 114.375 32.8736 114.274 32.8726H114.275ZM102.493 36.9668C102.367 36.9668 102.24 36.9811 102.137 36.9811C101.453 36.9811 100.802 37.1025 100.162 37.3259C98.2792 37.9817 96.5453 38.6274 94.9112 39.829C94.44 40.1758 93.9422 40.4899 93.5036 40.8785C93.3516 41.0132 93.0854 41.1703 93.064 41.3916C93.0314 41.7262 93.2976 42.1923 93.4567 42.4708C93.8657 43.1837 94.2839 43.8977 94.7399 44.5822C96.4565 47.1617 98.214 49.7291 99.9316 52.324H99.9786C99.9327 51.2438 99.697 50.1728 99.697 49.0865C99.697 48.6897 99.644 48.1817 99.8439 47.8196C100.13 47.3025 101.1 47.1464 101.621 46.9843C103.28 46.4651 105.02 45.7643 106.735 45.4736L106.876 45.3329C106.533 44.3955 105.963 43.5081 105.522 42.6115C104.974 41.4956 104.507 40.3206 103.98 39.1864C103.739 38.6682 103.5 38.149 103.243 37.638C103.146 37.4432 103.036 37.1402 102.837 37.0291C102.743 36.977 102.619 36.9648 102.494 36.9658L102.493 36.9668ZM91.075 42.3331C90.4885 42.3524 89.7786 42.7737 89.3267 42.9369C87.6611 43.5397 86.1341 44.6342 84.856 45.8531C84.3715 46.3151 83.7932 46.8731 83.5096 47.4912C83.221 48.1216 83.4923 48.3908 83.7514 48.9478C84.1196 49.7383 84.5868 50.4563 85.0478 51.1989C86.7991 54.0192 88.9932 56.4815 90.9567 59.1284C91.535 59.9087 92.1103 60.6992 92.8457 61.3469C93.0507 61.5274 93.2833 61.9028 93.5536 61.9762C94.3441 62.1894 95.306 61.8742 96.0832 61.7661C97.603 61.555 99.1167 61.3469 100.634 61.0715C101.32 60.947 102.004 60.691 102.699 60.6298C102.589 60.1168 102.216 59.7965 101.988 59.3599C101.445 58.3246 100.892 57.3148 100.296 56.306C98.4057 53.1083 96.532 49.9117 94.5195 46.7884C93.8504 45.7501 93.1711 44.7199 92.4856 43.6917C92.2449 43.3306 91.9195 42.6309 91.5299 42.4259C91.3932 42.3535 91.2382 42.328 91.074 42.3331H91.075ZM80.3415 74.0204C80.5251 74.6405 80.823 75.3066 81.1708 75.8676C82.0449 77.2772 83.4607 78.5216 84.6816 79.6253C85.3967 80.272 86.126 80.9054 86.84 81.5531C87.0654 81.7571 87.5621 82.0243 87.66 82.3211C87.7651 82.6414 87.5988 83.1433 87.5907 83.4799C87.5611 84.7018 87.4407 85.9738 87.2724 87.1866C84.7112 106.918 84.7408 126.032 84.8316 134.027C89.6082 136.232 95.5293 137.814 101.135 137.814C105.793 137.814 113.924 136.172 118.039 134.621C117.299 120.914 116.693 111.577 114.811 94.0328C114.718 93.2606 114.74 92.465 114.657 91.6909C114.507 90.2955 114.289 88.9093 114.156 87.515C114.1 86.9428 114.135 86.3461 114.042 85.7789C113.812 84.3683 113.696 82.9382 113.63 81.5092C113.609 81.0461 113.3 80.4739 113.472 80.0078C113.562 79.766 113.832 79.5784 114.006 79.3978C114.364 79.0265 114.692 78.692 115.082 78.3564C115.934 77.622 116.679 76.7519 117.512 75.9961C118.246 75.3311 118.874 74.5487 119.579 73.8592C121.723 71.7641 123.896 69.6966 126.019 67.573C126.857 66.7355 127.671 65.8787 128.506 65.0393C128.839 64.7047 129.428 64.2376 129.562 63.7724C129.701 63.2879 129.372 62.7004 129.2 62.271C128.962 61.6814 128.82 61.0072 128.641 60.3942C127.766 57.4015 126.73 54.4751 125.714 51.5263C125.127 49.8199 124.488 48.1267 123.918 46.412C123.696 45.746 123.531 44.6321 123.053 44.117C122.448 43.4673 121.417 43.25 120.576 43.1409C120.479 43.1276 120.38 43.1236 120.282 43.1266C119.856 43.1378 119.432 43.2745 119.028 43.3837C118.07 43.6417 117.119 43.9171 116.166 44.1884C112.917 45.1146 109.674 46.103 106.407 46.9537C105.229 47.2607 104.051 47.584 102.888 47.9349C102.514 48.0471 101.872 48.1256 101.584 48.398C101.385 48.5867 101.433 48.8866 101.433 49.1344C101.433 49.7485 101.467 50.3615 101.583 50.9643C101.702 51.5885 101.757 52.2169 101.882 52.8411C101.928 53.0686 101.917 53.3827 102.043 53.5826C102.206 53.8407 102.802 53.9825 103.075 54.1192C104.396 54.7811 105.916 55.4115 107.298 55.8256C108.149 55.999 109.016 56.1806 109.879 56.2744C110.325 56.3234 110.789 56.4376 111.239 56.3244C112.701 55.9572 113.95 54.8526 115.04 53.8652C115.442 53.5011 115.812 52.9298 116.307 52.6993C116.012 53.7224 115.442 54.7016 115.067 55.7022C114.925 56.0837 114.655 56.5508 114.678 56.969C114.706 57.526 115.264 58.3379 115.746 58.5939C116.031 58.7449 116.416 58.7551 116.73 58.8183C117.615 58.9958 118.558 59.0855 119.451 59.1743V59.2212C118.597 59.4313 117.691 59.4109 116.824 59.5088C116.278 59.57 115.756 59.7669 115.229 59.8648C114.131 60.0678 112.95 60.2412 111.897 60.6196C111.421 60.791 110.954 61.0021 110.494 61.2388C109.362 61.8232 103.834 62.2792 102.606 62.4169C101.244 62.5699 99.8847 62.8402 98.524 63.0125C97.7754 63.1074 97.0226 63.2196 96.2719 63.2951C95.8119 63.342 95.2386 63.3512 94.8174 63.5542C92.9202 64.4711 91.1607 65.8441 89.4216 67.0089L88.0609 67.9167C87.911 68.0167 87.6937 68.2564 87.4979 68.2217C87.2847 68.185 87.0531 67.9269 86.8879 67.7963C86.4503 67.4526 86.0209 67.0946 85.5741 66.7631C83.834 65.4687 82.1775 64.0682 80.4599 62.7575C79.9672 62.3812 79.5041 61.9701 79.0064 61.608C78.7616 61.4295 78.6789 61.2724 78.3699 61.2031C78.3311 61.6774 78.1037 62.0762 78.071 62.5525C77.9843 63.8163 78.124 65.2025 78.3597 66.4428C78.6351 67.8902 79.0818 69.3865 79.4613 70.8115C79.6204 71.4082 79.8183 71.8896 79.9437 72.5944M81.8266 49.876C81.7359 49.876 81.641 49.8882 81.538 49.9096C80.519 50.1269 79.6296 50.9459 78.8635 51.6018C78.0078 52.3352 77.2785 53.1604 76.6043 54.061C76.2065 54.5924 75.8229 55.1453 75.8627 55.844C75.9117 56.7151 76.9898 57.4872 77.5508 58.0492C79.2205 59.723 80.9648 61.2235 82.7559 62.7565C83.8993 63.7347 85.0458 64.6925 86.231 65.6146C86.6921 65.9726 87.1949 66.5193 87.8263 66.3775C89.0921 66.0929 90.3804 65.0597 91.3473 64.2396C91.634 63.9958 92.248 63.5429 92.2194 63.1176C92.2 62.8289 92.0042 62.679 91.8553 62.4597C91.4565 61.8681 90.9954 61.3357 90.5721 60.7675C88.9412 58.5796 87.351 56.3499 85.7088 54.1559C84.8836 53.0533 84.0574 51.9608 83.2118 50.8715C82.8079 50.3513 82.4601 49.8719 81.8277 49.877L81.8266 49.876ZM101.902 55.6094C101.963 56.0306 102.357 56.4346 102.59 56.7824C103.187 57.679 103.794 58.5827 104.434 59.4497C104.633 59.719 104.943 60.4942 105.289 60.5645C105.75 60.6574 106.307 60.2871 106.736 60.18C108.079 59.8475 109.494 59.3773 110.864 59.1753C110.8 58.8632 110.614 58.1573 110.364 57.9523C110.205 57.8218 109.888 57.784 109.691 57.7279C109.162 57.5759 108.629 57.424 108.096 57.2883C106.018 56.7589 103.976 56.1031 101.902 55.6094Z" fill="black"/>
</svg>
