<?xml version="1.0" encoding="UTF-8"?>
<svg xmlns="http://www.w3.org/2000/svg" viewBox="0 0 2000 2000">
  <defs>
    <style>
      .cls-1 {
        letter-spacing: -.02em;
      }

      .cls-2 {
        letter-spacing: -.03em;
      }

      .cls-3 {
        letter-spacing: -.03em;
      }

      .cls-4 {
        letter-spacing: -.12em;
      }

      .cls-5 {
        letter-spacing: -.1em;
      }

      .cls-6 {
        font-family: LEMONMILK-Bold, 'LEMON MILK';
        font-size: 200.33px;
        font-weight: 700;
        stroke: #fff;
        stroke-miterlimit: 10;
        stroke-width: 3px;
      }
    </style>
  </defs>
  <g id="Calque_2">
    <g id="layer1">
      <g id="g249">
        <path id="path251" d="M405.99,1187.83c0,32.7,2.88,64.68,8.04,95.99,45.77-272.01,282.24-479.65,567.6-479.65s521.7,207.64,567.32,479.65c5.32-31.3,8-63.28,8-95.99,0-317.82-257.57-575.39-575.31-575.39s-575.63,257.57-575.63,575.39"/>
      </g>
      <g id="g253">
        <path id="path255" d="M1143.95,635.66c25.51,134.12,33.27,287.47-30.68,398.02-142.92,246.62-441.07,347.16-699.32,250.46,24.35,20.11,50.57,38.66,78.84,54.89,274.88,159.47,626.84,65.8,786.19-209.12,70.28-121.14,91.4-257.3,69.51-385.35"/>
      </g>
      <g id="g257">
        <path id="path259" d="M780.56,648.5c-21.92,127.95-.86,264.02,69.33,385.18,143,246.62,441.15,347.16,699.32,250.46-24.43,20.11-50.69,38.66-79.08,54.89-274.64,159.47-626.97,65.8-786.07-209.12-70.28-121.17-91.38-257.35-69.46-385.42"/>
      </g>
    </g>
    <line x1="1182.52" y1="648.5" x2="1348.47" y2="744.56"/>
  </g>
  <g id="Calque_5">
    <rect x="804.94" y="1026.22" width="347.14" height="180.09"/>
  </g>
  <g id="Calque_8">
    <text class="cls-6" transform="translate(541.37 1635.85) scale(.75 1)"><tspan class="cls-1" x="0" y="0">BORDE</tspan><tspan class="cls-5" x="731.57" y="0">A</tspan><tspan class="cls-1" x="882.58" y="0">UX</tspan><tspan class="cls-2" x="-212.31" y="240.39">EN RÉSIS</tspan><tspan class="cls-4" x="696.84" y="240.39">T</tspan><tspan class="cls-3" x="798.06" y="240.39">ANCE</tspan></text>
  </g>
  <g id="Calque_9">
    <g id="layer1-2" data-name="layer1">
      <g id="g6844">
        <path id="path6792" d="M1107.64,173.09c-4.31-.05-9.72,2.67-13.2,3.72-12.29,3.71-24.93,7.05-37.26,10.59-11.46,3.3-22.01,7.32-33.12,11.53-3.49,1.32-10.86,2.95-12.87,6.31-1.79,2.99,1.38,8.17,2.6,10.88,4.17,9.23,9.32,18.04,13.57,27.16,4.96,10.64,12.18,20.32,16.58,31.27,1.55,3.87,3.43,7.37,5.42,11.04.74,1.36,1.51,3.77,2.93,4.54,1.93,1.05,6.15-.9,8.11-1.45,6.91-1.95,13.92-3.42,20.7-5.84,9.72-3.47,20.27-4.9,30.36-7.56,13.56-3.57,27.01-7.93,40.48-11.31-.63-7.18-6.16-15.52-9.09-22.08-7.16-16.03-13.46-32.47-21.59-47.84-2.53-4.78-5.09-9.63-7.32-14.55-.92-2.03-1.21-4.87-3.55-5.88-.84-.36-1.77-.52-2.76-.53ZM992.13,213.23c-1.23,0-2.48.14-3.49.14-6.7,0-13.09,1.19-19.36,3.38-18.46,6.43-35.46,12.76-51.48,24.54-4.62,3.4-9.5,6.48-13.8,10.29-1.49,1.32-4.1,2.86-4.31,5.03-.32,3.28,2.29,7.85,3.85,10.58,4.01,6.99,8.11,13.99,12.58,20.7,16.83,25.29,34.06,50.46,50.9,75.9h.46c-.45-10.59-2.76-21.09-2.76-31.74,0-3.89-.52-8.87,1.44-12.42,2.8-5.07,12.31-6.6,17.42-8.19,16.27-5.09,33.33-11.96,50.14-14.81l1.38-1.38c-3.36-9.19-8.95-17.89-13.27-26.68-5.38-10.94-9.95-22.46-15.12-33.58-2.36-5.08-4.71-10.17-7.23-15.18-.95-1.91-2.03-4.88-3.98-5.97-.92-.51-2.13-.63-3.36-.62ZM880.19,265.84c-5.75.19-12.71,4.32-17.14,5.92-16.33,5.91-31.3,16.64-43.83,28.59-4.75,4.53-10.42,10-13.2,16.06-2.83,6.18-.17,8.82,2.37,14.28,3.61,7.75,8.19,14.79,12.71,22.07,17.17,27.65,38.68,51.79,57.93,77.74,5.67,7.65,11.31,15.4,18.52,21.75,2.01,1.77,4.29,5.45,6.94,6.17,7.75,2.09,17.18-1,24.8-2.06,14.9-2.07,29.74-4.11,44.62-6.81,6.72-1.22,13.43-3.73,20.24-4.33-1.08-5.03-4.73-8.17-6.97-12.45-5.32-10.15-10.74-20.05-16.59-29.94-18.53-31.35-36.9-62.69-56.63-93.31-6.56-10.18-13.22-20.28-19.94-30.36-2.36-3.54-5.55-10.4-9.37-12.41-1.34-.71-2.86-.96-4.47-.91ZM774.96,576.5c1.8,6.08,4.72,12.61,8.13,18.11,8.57,13.82,22.45,26.02,34.42,36.84,7.01,6.34,14.16,12.55,21.16,18.9,2.21,2,7.08,4.62,8.04,7.53,1.03,3.14-.6,8.06-.68,11.36-.29,11.98-1.47,24.45-3.12,36.34-25.11,193.45-24.82,380.84-23.93,459.22,46.83,21.62,104.88,37.13,159.84,37.13,45.66,0,125.38-16.1,165.72-31.31-7.25-134.38-13.19-225.92-31.64-397.92-.92-7.57-.7-15.37-1.51-22.96-1.47-13.68-3.61-27.27-4.92-40.94-.54-5.61-.2-11.46-1.11-17.02-2.26-13.83-3.4-27.85-4.04-41.86-.21-4.54-3.24-10.15-1.55-14.72.88-2.37,3.53-4.21,5.23-5.98,3.51-3.64,6.73-6.92,10.55-10.21,8.36-7.2,15.66-15.73,23.83-23.14,7.19-6.52,13.35-14.19,20.26-20.95,21.02-20.54,42.32-40.81,63.14-61.63,8.21-8.21,16.19-16.61,24.38-24.84,3.27-3.28,9.04-7.86,10.35-12.42,1.37-4.75-1.86-10.51-3.55-14.72-2.33-5.78-3.72-12.39-5.48-18.4-8.57-29.34-18.73-58.03-28.69-86.94-5.76-16.73-12.02-33.33-17.61-50.14-2.18-6.53-3.79-17.45-8.48-22.5-5.93-6.37-16.04-8.5-24.28-9.57-.96-.13-1.93-.17-2.89-.14-4.17.11-8.33,1.45-12.29,2.52-9.39,2.53-18.72,5.23-28.06,7.89-31.85,9.08-63.65,18.77-95.68,27.11-11.55,3.01-23.09,6.18-34.5,9.62-3.66,1.1-9.96,1.87-12.78,4.54-1.95,1.85-1.48,4.79-1.48,7.22,0,6.02.33,12.03,1.47,17.94,1.17,6.12,1.71,12.28,2.93,18.4.45,2.23.34,5.31,1.58,7.27,1.6,2.53,7.44,3.92,10.12,5.26,12.95,6.49,27.85,12.67,41.4,16.73,8.34,1.7,16.84,3.48,25.3,4.4,4.38.48,8.92,1.6,13.34.49,14.33-3.6,26.57-14.43,37.26-24.11,3.94-3.57,7.57-9.17,12.42-11.43-2.89,10.03-8.48,19.63-12.15,29.44-1.4,3.74-4.04,8.32-3.82,12.42.28,5.46,5.75,13.42,10.47,15.93,2.8,1.48,6.57,1.58,9.65,2.2,8.68,1.74,17.92,2.62,26.68,3.49v.46c-8.38,2.06-17.26,1.86-25.76,2.82-5.35.6-10.47,2.53-15.64,3.49-10.76,1.99-22.34,3.69-32.66,7.4-4.67,1.68-9.25,3.75-13.76,6.07-11.1,5.73-65.29,10.2-77.33,11.55-13.35,1.5-26.68,4.15-40.02,5.84-7.34.93-14.72,2.03-22.08,2.77-4.51.46-10.13.55-14.26,2.54-18.6,8.99-35.85,22.45-52.9,33.87l-13.34,8.9c-1.47.98-3.6,3.33-5.52,2.99-2.09-.36-4.36-2.89-5.98-4.17-4.29-3.37-8.5-6.88-12.88-10.13-17.06-12.69-33.3-26.42-50.14-39.27-4.83-3.69-9.37-7.72-14.25-11.27-2.4-1.75-3.21-3.29-6.24-3.97-.38,4.65-2.61,8.56-2.93,13.23-.85,12.39.52,25.98,2.83,38.14,2.7,14.19,7.08,28.86,10.8,42.83,1.56,5.85,3.5,10.57,4.73,17.48M789.52,339.79c-.89,0-1.82.12-2.83.33-9.99,2.13-18.71,10.16-26.22,16.59-8.39,7.19-15.54,15.28-22.15,24.11-3.9,5.21-7.66,10.63-7.27,17.48.48,8.54,11.05,16.11,16.55,21.62,16.37,16.41,33.47,31.12,51.03,46.15,11.21,9.59,22.45,18.98,34.07,28.02,4.52,3.51,9.45,8.87,15.64,7.48,12.41-2.79,25.04-12.92,34.52-20.96,2.81-2.39,8.83-6.83,8.55-11-.19-2.83-2.11-4.3-3.57-6.45-3.91-5.8-8.43-11.02-12.58-16.59-15.99-21.45-31.58-43.31-47.68-64.82-8.09-10.81-16.19-21.52-24.48-32.2-3.96-5.1-7.37-9.8-13.57-9.75ZM986.34,396c.6,4.13,4.46,8.09,6.74,11.5,5.86,8.79,11.81,17.65,18.08,26.15,1.95,2.64,4.99,10.24,8.38,10.93,4.52.91,9.98-2.72,14.19-3.77,13.17-3.26,27.04-7.87,40.47-9.85-.63-3.06-2.45-9.98-4.9-11.99-1.56-1.28-4.67-1.65-6.6-2.2-5.19-1.49-10.41-2.98-15.64-4.31-20.37-5.19-40.39-11.62-60.72-16.46Z"/>
      </g>
    </g>
  </g>
</svg>