<svg width="20" height="20" viewBox="0 0 20 20" fill="none" xmlns="http://www.w3.org/2000/svg">
<path d="M18.6282 20L12.4454 13.8275C10.8881 15.0254 8.93209 15.5857 6.97554 15.3945C5.01899 15.2033 3.20897 14.2749 1.91392 12.7983C0.618874 11.3217 -0.0638542 9.40792 0.00470734 7.4465C0.0732708 5.48508 0.887974 3.62347 2.28298 2.2406C3.67798 0.857738 5.54842 0.0575729 7.51356 0.00298767C9.4787 -0.0515976 11.3908 0.6435 12.8607 1.94679C14.3306 3.25008 15.2477 5.06359 15.4254 7.01817C15.6031 8.97274 15.028 10.9215 13.8172 12.4677L20 18.6401L18.6282 20ZM7.72133 1.95517C6.57492 1.95517 5.45425 2.29455 4.50104 2.9304C3.54783 3.56625 2.80489 4.47001 2.36618 5.52739C1.92746 6.58477 1.81268 7.74828 2.03633 8.87079C2.25998 9.99329 2.81203 11.0244 3.62267 11.8337C4.43331 12.643 5.46613 13.1941 6.59052 13.4174C7.7149 13.6406 8.88036 13.526 9.93951 13.0881C10.9987 12.6501 11.9039 11.9084 12.5408 10.9568C13.1778 10.0052 13.5177 8.88636 13.5177 7.74186C13.5177 6.20713 12.907 4.73526 11.82 3.65005C10.733 2.56483 9.25863 1.95517 7.72133 1.95517Z" fill="black"/>
</svg>
